<svg width="524" height="377" viewBox="0 0 524 377" fill="none" xmlns="http://www.w3.org/2000/svg">
<g clip-path="url(#clip0)">
<path opacity="0.1" d="M296.39 51.3268C262.802 51.3736 230.473 41.4509 199.549 30.4278C168.626 19.4047 137.941 7.06112 104.978 1.83054C83.7784 -1.53164 59.6717 -1.22259 43.1002 10.9852C27.1489 22.7295 22.5297 42.1674 20.301 60.1256C18.625 73.6352 17.8521 87.8144 24.1293 100.172C28.4879 108.751 35.9468 115.822 41.204 123.998C59.5548 152.44 48.5192 188.774 30.6851 217.877C22.323 231.531 12.5275 244.619 6.20539 259.056C-0.116745 273.493 -2.7094 289.864 3.73854 304.113C10.1281 318.236 24.5607 328.487 40.0492 335.487C71.5026 349.732 108.123 352.785 143.76 353.961C222.645 356.569 301.683 351.249 380.51 345.93C409.68 343.963 438.982 341.982 467.55 336.283C483.412 333.123 499.745 328.431 510.992 318.147C525.267 305.092 528.188 283.776 517.799 268.454C500.379 242.756 454.443 237.909 441.952 210.103C435.063 194.796 441.004 177.24 449.752 162.485C468.516 130.825 500.814 102.467 501.358 67.056C501.731 42.7387 484.935 19.0161 459.849 8.4472C433.554 -2.62271 397.701 0.224373 379.279 20.8564C360.335 42.1112 326.046 51.294 296.39 51.3268Z" fill="#1A90FF"/>
<path d="M445.977 302.204C445.977 302.204 440.455 298.406 434.982 301.108C434.982 301.108 436.667 304.489 443.596 304.171L445.977 302.204Z" fill="#1A90FF"/>
<path d="M446.679 302.404C446.679 302.404 448.359 309.072 444.144 313.61C444.144 313.61 441.61 310.861 444.144 304.127L446.679 302.404Z" fill="#1A90FF"/>
<path d="M453.545 296.005C453.545 296.005 453.136 290.334 440.846 292.216C440.846 292.216 440.788 295.874 445.102 297.606C449.415 299.339 451.392 297.878 453.545 296.005Z" fill="#1A90FF"/>
<path d="M454.317 295.966C454.317 295.966 459.512 297.703 454.879 309.714C454.879 309.714 451.451 308.918 450.835 304.137C450.219 299.356 452.044 297.708 454.317 295.966Z" fill="#1A90FF"/>
<path d="M461.255 287.921C461.255 287.921 461.961 278.589 449.402 279.544C449.402 279.544 448.503 287.973 459.04 290.164L461.255 287.921Z" fill="#1A90FF"/>
<path d="M469.554 277.384C469.554 277.384 467.833 266.806 455.279 269.957C455.279 269.957 455.234 279.102 467.505 279.903L469.554 277.384Z" fill="#1A90FF"/>
<path d="M475.62 266.494C475.62 266.494 472.735 256.192 460.298 259.273C460.298 259.273 463.259 268.54 474.793 268.395L475.62 266.494Z" fill="#1A90FF"/>
<path d="M481.38 255.854C481.38 255.854 478.563 245.163 466.552 248.362C466.552 248.362 470.56 258.519 480.585 257.662L481.38 255.854Z" fill="#1A90FF"/>
<path d="M485.092 245.748C485.092 245.748 482.926 232.674 471.729 235.568C471.729 235.568 474.982 247.462 484.27 247.654L485.092 245.748Z" fill="#1A90FF"/>
<path d="M488.575 233.541C488.575 233.541 485.973 220.364 474.645 224.176C474.645 224.176 479.085 236.632 487.77 235.344L488.575 233.541Z" fill="#1A90FF"/>
<path d="M490.713 222.182C490.713 222.182 486.584 209 477.826 209.356C477.826 209.356 482.046 223.278 489.981 224.809L490.713 222.182Z" fill="#1A90FF"/>
<path d="M492.098 211.091C492.098 211.091 487.604 195.226 480.478 196.448C480.478 196.448 483.587 208.576 491.846 213.563L492.098 211.091Z" fill="#1A90FF"/>
<path d="M492.879 197.864C492.879 197.864 488.664 184.645 481.646 184.115C481.646 184.115 484.512 197.124 492.739 201.301L492.879 197.864Z" fill="#1A90FF"/>
<path d="M493.728 185.519C493.728 185.519 488.476 172.286 483.843 171.986C483.843 171.986 486.126 185.018 493.279 187.692L493.728 185.519Z" fill="#1A90FF"/>
<path d="M494.308 174.038C494.308 174.038 491.078 159.667 486.436 158.473C486.436 158.473 487.069 170.231 493.841 175.115L494.308 174.038Z" fill="#1A90FF"/>
<path d="M496.06 158.997C496.06 158.997 492.663 147.538 488.902 145.792C488.902 145.792 489.644 159.301 495.193 161.797L496.06 158.997Z" fill="#1A90FF"/>
<path d="M497.512 149.162L498.195 128.96C498.195 128.96 491.163 144.189 497.004 152.706L497.512 149.162Z" fill="#1A90FF"/>
<path d="M502.939 129.069C502.939 129.069 508.003 114.319 509.23 113.494C509.23 113.494 499.3 123.066 500.27 135.377L502.939 129.069Z" fill="#1A90FF"/>
<path d="M461.596 287.852C461.596 287.852 470.502 286.639 470.237 299.755C470.237 299.755 462.19 301.123 459.561 290.273L461.596 287.852Z" fill="#1A90FF"/>
<path d="M469.977 277.03C469.977 277.03 480.267 276.997 479.413 290.423C479.413 290.423 470.772 292.033 467.924 279.568L469.977 277.03Z" fill="#1A90FF"/>
<path d="M475.719 267.36C475.719 267.36 485.061 262.794 491.037 274.581C491.037 274.581 482.409 278.383 474.892 269.266L475.719 267.36Z" fill="#1A90FF"/>
<path d="M481.587 255.952C481.587 255.952 491.153 251.096 496.77 262.607C496.77 262.607 486.804 266.184 480.796 257.774L481.587 255.952Z" fill="#1A90FF"/>
<path d="M484.971 246.033C484.971 246.033 494.178 236.87 501.525 246.137C501.525 246.137 492.12 253.68 484.549 248.075L484.971 246.033Z" fill="#1A90FF"/>
<path d="M488.053 233.227C488.053 233.227 497.314 223.862 504.602 233.658C504.602 233.658 494.209 241.352 487.721 235.194L488.053 233.227Z" fill="#1A90FF"/>
<path d="M489.783 221.807C489.783 221.807 496.919 210.1 505.321 212.713C505.321 212.713 497.916 225.108 489.864 224.556L489.783 221.807Z" fill="#1A90FF"/>
<path d="M491.886 211.017C491.886 211.017 499.075 196.276 505.878 198.842C505.878 198.842 500.693 210.174 491.701 213.504L491.886 211.017Z" fill="#1A90FF"/>
<path d="M492.385 197.093C492.385 197.093 499.776 185.49 506.7 186.909C506.7 186.909 500.657 198.676 491.666 200.451L492.385 197.093Z" fill="#1A90FF"/>
<path d="M492.96 185.262C492.96 185.262 498.689 172.24 503.344 172.151C503.344 172.151 500.594 185.08 493.347 187.472L492.96 185.262Z" fill="#1A90FF"/>
<path d="M494.083 173.757C494.083 173.757 500.45 160.571 505.236 160.542C505.236 160.542 501.978 171.818 494.294 174.914L494.083 173.757Z" fill="#1A90FF"/>
<path d="M495.041 159.819C495.041 159.819 499.803 148.909 503.748 147.672C503.748 147.672 501.367 160.971 495.566 162.713L495.041 159.819Z" fill="#1A90FF"/>
<path d="M498.078 148.766L508.722 131.866C508.722 131.866 505.995 148.537 496.523 152.002L498.078 148.766Z" fill="#1A90FF"/>
<path d="M505.384 130.433C505.384 130.433 517.754 121.536 518.204 120.098C518.204 120.098 511.913 132.559 500.23 134.76L505.384 130.433Z" fill="#1A90FF"/>
<path d="M506.126 126.429C506.126 126.429 520.329 112.198 523.955 112.212C523.955 112.212 512.241 112.769 505.784 125.67L506.126 126.429Z" fill="#1A90FF"/>
<path d="M495.18 161.932L495.697 162.002C498.366 140.232 502.257 127.35 506.652 125.772L506.481 125.257C501.821 126.943 497.903 139.628 495.18 161.932Z" fill="#444053"/>
<path d="M491.252 213.994L492.034 214.06C492.201 212.027 492.326 209.948 492.412 207.874C493.158 189.855 494.312 173.306 495.831 160.902L495.382 160.316C493.859 172.749 492.376 189.794 491.63 207.841C491.545 209.901 491.419 211.971 491.252 213.994Z" fill="#444053"/>
<path d="M431.401 312.59C431.536 312.529 445.299 306.123 459.584 290.848C467.953 281.902 474.906 271.628 480.186 260.411C486.791 246.395 490.817 229.172 492.165 212.441L491.352 212.839C488.319 250.394 471.913 276.055 458.869 290.033C444.724 305.173 431.114 311.513 430.979 311.574L431.401 312.59Z" fill="#444053"/>
<path d="M467.038 39.9092H35.282C34.2619 39.9092 33.2835 40.3315 32.5622 41.0832C31.8409 41.8349 31.4357 42.8545 31.4357 43.9176V55.5963H470.884V43.9176C470.884 42.8545 470.479 41.8349 469.758 41.0832C469.036 40.3315 468.058 39.9092 467.038 39.9092Z" fill="#3F3D56"/>
<path d="M31.4357 55.5964V318.408C31.4357 320.552 32.2528 322.608 33.7072 324.124C35.1616 325.639 37.1343 326.491 39.1912 326.491H463.129C465.186 326.491 467.158 325.639 468.613 324.124C470.067 322.608 470.884 320.552 470.884 318.408V55.5964H31.4357Z" fill="white"/>
<path opacity="0.8" d="M38.3959 49.5088C39.3885 49.5088 40.1932 48.6702 40.1932 47.6358C40.1932 46.6013 39.3885 45.7627 38.3959 45.7627C37.4032 45.7627 36.5985 46.6013 36.5985 47.6358C36.5985 48.6702 37.4032 49.5088 38.3959 49.5088Z" fill="#FA5959"/>
<path opacity="0.8" d="M43.3386 49.5088C44.3312 49.5088 45.1359 48.6702 45.1359 47.6358C45.1359 46.6013 44.3312 45.7627 43.3386 45.7627C42.346 45.7627 41.5413 46.6013 41.5413 47.6358C41.5413 48.6702 42.346 49.5088 43.3386 49.5088Z" fill="#FED253"/>
<path opacity="0.8" d="M48.2813 49.5088C49.274 49.5088 50.0787 48.6702 50.0787 47.6358C50.0787 46.6013 49.274 45.7627 48.2813 45.7627C47.2887 45.7627 46.484 46.6013 46.484 47.6358C46.484 48.6702 47.2887 49.5088 48.2813 49.5088Z" fill="#8CCF4D"/>
<path opacity="0.05" d="M425.461 99.4197H72.2843V261.263H425.461V99.4197Z" fill="black"/>
<path d="M422.764 100.646H74.9799V258.922H422.764V100.646Z" fill="#BDBCD6"/>
<path d="M169.79 141.381C162.947 141.381 156.258 143.495 150.568 147.457C144.878 151.419 140.444 157.051 137.825 163.639C135.206 170.228 134.521 177.477 135.856 184.472C137.191 191.466 140.486 197.891 145.325 202.933C150.164 207.976 156.329 211.41 163.04 212.801C169.752 214.193 176.708 213.479 183.03 210.75C189.353 208.021 194.756 203.399 198.558 197.47C202.36 191.54 204.389 184.569 204.389 177.437C204.389 172.702 203.494 168.014 201.755 163.639C200.016 159.264 197.468 155.29 194.255 151.941C191.042 148.593 187.228 145.937 183.03 144.125C178.833 142.313 174.334 141.381 169.79 141.381ZM175.995 178.304V195.377H163.765V178.304C162.072 176.969 160.825 175.113 160.198 172.999C159.572 170.885 159.599 168.62 160.275 166.523C160.95 164.426 162.241 162.603 163.965 161.311C165.688 160.02 167.757 159.325 169.88 159.325C172.003 159.325 174.072 160.02 175.795 161.311C177.519 162.603 178.81 164.426 179.485 166.523C180.161 168.62 180.188 170.885 179.562 172.999C178.935 175.113 177.688 176.969 175.995 178.304Z" fill="#1A90FF"/>
<path opacity="0.05" d="M169.79 141.381C162.947 141.381 156.258 143.495 150.568 147.457C144.878 151.419 140.444 157.051 137.825 163.639C135.206 170.228 134.521 177.477 135.856 184.472C137.191 191.466 140.486 197.891 145.325 202.933C150.164 207.976 156.329 211.41 163.04 212.801C169.752 214.193 176.708 213.479 183.03 210.75C189.353 208.021 194.756 203.399 198.558 197.47C202.36 191.54 204.389 184.569 204.389 177.437C204.389 172.702 203.494 168.014 201.755 163.639C200.016 159.264 197.468 155.29 194.255 151.941C191.042 148.593 187.228 145.937 183.03 144.125C178.833 142.313 174.334 141.381 169.79 141.381ZM175.995 178.304V195.377H163.765V178.304C162.072 176.969 160.825 175.113 160.198 172.999C159.572 170.885 159.599 168.62 160.275 166.523C160.95 164.426 162.241 162.603 163.965 161.311C165.688 160.02 167.757 159.325 169.88 159.325C172.003 159.325 174.072 160.02 175.795 161.311C177.519 162.603 178.81 164.426 179.485 166.523C180.161 168.62 180.188 170.885 179.562 172.999C178.935 175.113 177.688 176.969 175.995 178.304Z" fill="black"/>
<path d="M169.79 131.079C160.992 131.079 152.391 133.798 145.076 138.891C137.761 143.985 132.059 151.226 128.692 159.697C125.325 168.168 124.444 177.489 126.161 186.482C127.877 195.474 132.114 203.735 138.335 210.218C144.556 216.701 152.483 221.117 161.112 222.905C169.741 224.694 178.685 223.776 186.813 220.267C194.942 216.759 201.889 210.817 206.777 203.193C211.665 195.569 214.274 186.606 214.274 177.437C214.274 165.142 209.587 153.351 201.245 144.657C192.903 135.963 181.588 131.079 169.79 131.079ZM177.766 178.552V200.5H162.039V178.552C159.862 176.835 158.257 174.449 157.452 171.73C156.646 169.012 156.68 166.098 157.549 163.401C158.418 160.704 160.078 158.359 162.295 156.698C164.511 155.037 167.172 154.143 169.902 154.143C172.632 154.143 175.294 155.037 177.51 156.698C179.727 158.359 181.386 160.704 182.255 163.401C183.124 166.098 183.158 169.012 182.353 171.73C181.547 174.449 179.943 176.835 177.766 178.552Z" fill="#1A90FF"/>
<path d="M376.484 171.355H232.697V187.276H376.484V171.355Z" fill="white"/>
<path d="M376.483 200.388H345.479V216.31H376.483V200.388Z" fill="#1A90FF"/>
<path d="M246.85 179.076H244.249L246.563 176.669C246.604 176.625 246.627 176.565 246.627 176.503C246.627 176.441 246.604 176.381 246.563 176.337C246.542 176.315 246.517 176.297 246.49 176.286C246.462 176.274 246.433 176.268 246.403 176.268C246.374 176.268 246.344 176.274 246.317 176.286C246.29 176.297 246.265 176.315 246.244 176.337L243.93 178.748V176.032C243.93 175.97 243.906 175.911 243.864 175.867C243.822 175.823 243.765 175.798 243.705 175.798C243.646 175.8 243.589 175.825 243.547 175.868C243.506 175.912 243.482 175.971 243.48 176.032V178.748L241.171 176.323C241.15 176.301 241.125 176.283 241.098 176.272C241.07 176.26 241.041 176.254 241.011 176.254C240.982 176.254 240.952 176.26 240.925 176.272C240.898 176.283 240.873 176.301 240.852 176.323C240.81 176.367 240.787 176.427 240.787 176.489C240.787 176.551 240.81 176.611 240.852 176.655L243.166 179.062H240.56C240.501 179.063 240.444 179.088 240.402 179.132C240.36 179.176 240.336 179.235 240.335 179.296C240.335 179.358 240.359 179.418 240.401 179.462C240.443 179.506 240.5 179.53 240.56 179.53H243.166L240.852 181.942C240.81 181.987 240.787 182.046 240.787 182.108C240.787 182.17 240.81 182.23 240.852 182.275C240.895 182.317 240.952 182.34 241.011 182.34C241.071 182.34 241.128 182.317 241.171 182.275L243.48 179.863V182.574C243.48 182.636 243.504 182.696 243.546 182.74C243.588 182.784 243.646 182.808 243.705 182.808C243.765 182.808 243.822 182.784 243.864 182.74C243.906 182.696 243.93 182.636 243.93 182.574V179.863L246.244 182.275C246.287 182.317 246.344 182.34 246.403 182.34C246.463 182.34 246.52 182.317 246.563 182.275C246.604 182.23 246.627 182.17 246.627 182.108C246.627 182.046 246.604 181.987 246.563 181.942L244.249 179.53H246.85C246.91 179.53 246.967 179.506 247.009 179.462C247.051 179.418 247.075 179.358 247.075 179.296C247.072 179.237 247.046 179.181 247.005 179.14C246.963 179.099 246.908 179.076 246.85 179.076Z" fill="#1A90FF"/>
<path d="M256.286 179.076H253.685L255.999 176.669C256.04 176.625 256.063 176.565 256.063 176.503C256.063 176.441 256.04 176.381 255.999 176.337C255.978 176.315 255.953 176.297 255.926 176.286C255.898 176.274 255.869 176.268 255.839 176.268C255.809 176.268 255.78 176.274 255.753 176.286C255.725 176.297 255.701 176.315 255.68 176.337L253.366 178.748V176.032C253.366 175.97 253.342 175.911 253.3 175.867C253.258 175.823 253.201 175.798 253.141 175.798C253.082 175.8 253.025 175.825 252.983 175.868C252.941 175.912 252.917 175.971 252.916 176.032V178.748L250.607 176.323C250.586 176.301 250.561 176.283 250.534 176.272C250.506 176.26 250.477 176.254 250.447 176.254C250.418 176.254 250.388 176.26 250.361 176.272C250.333 176.283 250.309 176.301 250.288 176.323C250.246 176.367 250.223 176.427 250.223 176.489C250.223 176.551 250.246 176.611 250.288 176.655L252.602 179.062H249.996C249.936 179.063 249.88 179.088 249.838 179.132C249.796 179.176 249.772 179.235 249.771 179.296C249.771 179.358 249.795 179.418 249.837 179.462C249.879 179.506 249.936 179.53 249.996 179.53H252.602L250.288 181.942C250.246 181.987 250.223 182.046 250.223 182.108C250.223 182.17 250.246 182.23 250.288 182.275C250.331 182.317 250.388 182.34 250.447 182.34C250.506 182.34 250.563 182.317 250.607 182.275L252.916 179.863V182.574C252.916 182.636 252.94 182.696 252.982 182.74C253.024 182.784 253.081 182.808 253.141 182.808C253.201 182.808 253.258 182.784 253.3 182.74C253.342 182.696 253.366 182.636 253.366 182.574V179.863L255.68 182.275C255.723 182.317 255.78 182.34 255.839 182.34C255.898 182.34 255.955 182.317 255.999 182.275C256.04 182.23 256.063 182.17 256.063 182.108C256.063 182.046 256.04 181.987 255.999 181.942L253.685 179.53H256.286C256.346 179.53 256.403 179.506 256.445 179.462C256.487 179.418 256.511 179.358 256.511 179.296C256.507 179.237 256.482 179.181 256.441 179.14C256.399 179.099 256.344 179.076 256.286 179.076Z" fill="#1A90FF"/>
<path d="M265.723 179.076H263.121L265.435 176.669C265.477 176.625 265.5 176.565 265.5 176.503C265.5 176.441 265.477 176.381 265.435 176.337C265.414 176.315 265.39 176.297 265.362 176.286C265.335 176.274 265.305 176.268 265.276 176.268C265.246 176.268 265.217 176.274 265.189 176.286C265.162 176.297 265.137 176.315 265.116 176.337L262.802 178.748V176.032C262.802 175.97 262.779 175.911 262.736 175.867C262.694 175.823 262.637 175.798 262.578 175.798C262.518 175.8 262.462 175.825 262.42 175.868C262.378 175.912 262.354 175.971 262.353 176.032V178.748L260.043 176.323C260.022 176.301 259.998 176.283 259.97 176.272C259.943 176.26 259.913 176.254 259.884 176.254C259.854 176.254 259.825 176.26 259.797 176.272C259.77 176.283 259.745 176.301 259.724 176.323C259.683 176.367 259.66 176.427 259.66 176.489C259.66 176.551 259.683 176.611 259.724 176.655L262.038 179.062H259.432C259.373 179.063 259.316 179.088 259.275 179.132C259.233 179.176 259.209 179.235 259.208 179.296C259.208 179.358 259.231 179.418 259.273 179.462C259.315 179.506 259.373 179.53 259.432 179.53H262.038L259.724 181.942C259.683 181.987 259.66 182.046 259.66 182.108C259.66 182.17 259.683 182.23 259.724 182.275C259.768 182.317 259.825 182.34 259.884 182.34C259.943 182.34 260 182.317 260.043 182.275L262.353 179.863V182.574C262.353 182.636 262.377 182.696 262.419 182.74C262.461 182.784 262.518 182.808 262.578 182.808C262.637 182.808 262.694 182.784 262.736 182.74C262.779 182.696 262.802 182.636 262.802 182.574V179.863L265.116 182.275C265.16 182.317 265.217 182.34 265.276 182.34C265.335 182.34 265.392 182.317 265.435 182.275C265.477 182.23 265.5 182.17 265.5 182.108C265.5 182.046 265.477 181.987 265.435 181.942L263.121 179.53H265.723C265.782 179.53 265.84 179.506 265.882 179.462C265.924 179.418 265.948 179.358 265.948 179.296C265.944 179.237 265.919 179.181 265.877 179.14C265.835 179.099 265.78 179.076 265.723 179.076Z" fill="#1A90FF"/>
<path d="M275.159 179.076H272.557L274.871 176.669C274.913 176.625 274.936 176.565 274.936 176.503C274.936 176.441 274.913 176.381 274.871 176.337C274.85 176.315 274.825 176.297 274.798 176.286C274.771 176.274 274.741 176.268 274.712 176.268C274.682 176.268 274.653 176.274 274.625 176.286C274.598 176.297 274.573 176.315 274.552 176.337L272.238 178.748V176.032C272.238 175.97 272.214 175.911 272.172 175.867C272.13 175.823 272.073 175.798 272.013 175.798C271.954 175.8 271.898 175.825 271.856 175.868C271.814 175.912 271.79 175.971 271.789 176.032V178.748L269.479 176.323C269.458 176.301 269.433 176.283 269.406 176.272C269.379 176.26 269.349 176.254 269.32 176.254C269.29 176.254 269.261 176.26 269.233 176.272C269.206 176.283 269.181 176.301 269.16 176.323C269.119 176.367 269.095 176.427 269.095 176.489C269.095 176.551 269.119 176.611 269.16 176.655L271.474 179.062H268.868C268.809 179.063 268.752 179.088 268.71 179.132C268.668 179.176 268.644 179.235 268.643 179.296C268.643 179.358 268.667 179.418 268.709 179.462C268.751 179.506 268.808 179.53 268.868 179.53H271.474L269.16 181.942C269.119 181.987 269.095 182.046 269.095 182.108C269.095 182.17 269.119 182.23 269.16 182.275C269.203 182.317 269.26 182.34 269.32 182.34C269.379 182.34 269.436 182.317 269.479 182.275L271.789 179.863V182.574C271.789 182.636 271.812 182.696 271.854 182.74C271.897 182.784 271.954 182.808 272.013 182.808C272.073 182.808 272.13 182.784 272.172 182.74C272.214 182.696 272.238 182.636 272.238 182.574V179.863L274.552 182.275C274.595 182.317 274.652 182.34 274.712 182.34C274.771 182.34 274.828 182.317 274.871 182.275C274.913 182.23 274.936 182.17 274.936 182.108C274.936 182.046 274.913 181.987 274.871 181.942L272.557 179.53H275.159C275.218 179.53 275.275 179.506 275.318 179.462C275.36 179.418 275.383 179.358 275.383 179.296C275.38 179.237 275.355 179.181 275.313 179.14C275.271 179.099 275.216 179.076 275.159 179.076Z" fill="#1A90FF"/>
<path d="M284.594 179.076H281.993L284.307 176.669C284.348 176.625 284.371 176.565 284.371 176.503C284.371 176.441 284.348 176.381 284.307 176.337C284.286 176.315 284.261 176.297 284.234 176.286C284.206 176.274 284.177 176.268 284.147 176.268C284.118 176.268 284.088 176.274 284.061 176.286C284.034 176.297 284.009 176.315 283.988 176.337L281.674 178.748V176.032C281.674 175.97 281.65 175.911 281.608 175.867C281.566 175.823 281.509 175.798 281.449 175.798C281.39 175.8 281.333 175.825 281.291 175.868C281.25 175.912 281.226 175.971 281.224 176.032V178.748L278.915 176.323C278.894 176.301 278.869 176.283 278.842 176.272C278.814 176.26 278.785 176.254 278.755 176.254C278.726 176.254 278.696 176.26 278.669 176.272C278.642 176.283 278.617 176.301 278.596 176.323C278.554 176.367 278.531 176.427 278.531 176.489C278.531 176.551 278.554 176.611 278.596 176.655L280.91 179.062H278.304C278.245 179.063 278.188 179.088 278.146 179.132C278.104 179.176 278.08 179.235 278.079 179.296C278.079 179.358 278.103 179.418 278.145 179.462C278.187 179.506 278.244 179.53 278.304 179.53H280.91L278.596 181.942C278.554 181.987 278.531 182.046 278.531 182.108C278.531 182.17 278.554 182.23 278.596 182.275C278.639 182.317 278.696 182.34 278.755 182.34C278.815 182.34 278.872 182.317 278.915 182.275L281.224 179.863V182.574C281.224 182.636 281.248 182.696 281.29 182.74C281.332 182.784 281.39 182.808 281.449 182.808C281.509 182.808 281.566 182.784 281.608 182.74C281.65 182.696 281.674 182.636 281.674 182.574V179.863L283.988 182.275C284.031 182.317 284.088 182.34 284.147 182.34C284.207 182.34 284.264 182.317 284.307 182.275C284.348 182.23 284.371 182.17 284.371 182.108C284.371 182.046 284.348 181.987 284.307 181.942L281.993 179.53H284.594C284.654 179.53 284.711 179.506 284.753 179.462C284.795 179.418 284.819 179.358 284.819 179.296C284.816 179.237 284.79 179.181 284.749 179.14C284.707 179.099 284.652 179.076 284.594 179.076Z" fill="#1A90FF"/>
<path d="M294.031 179.076H291.429L293.743 176.669C293.784 176.625 293.808 176.565 293.808 176.503C293.808 176.441 293.784 176.381 293.743 176.337C293.722 176.315 293.697 176.297 293.67 176.286C293.643 176.274 293.613 176.268 293.583 176.268C293.554 176.268 293.524 176.274 293.497 176.286C293.47 176.297 293.445 176.315 293.424 176.337L291.11 178.748V176.032C291.11 175.97 291.086 175.911 291.044 175.867C291.002 175.823 290.945 175.798 290.885 175.798C290.826 175.8 290.769 175.825 290.728 175.868C290.686 175.912 290.662 175.971 290.661 176.032V178.748L288.351 176.323C288.33 176.301 288.305 176.283 288.278 176.272C288.25 176.26 288.221 176.254 288.191 176.254C288.162 176.254 288.132 176.26 288.105 176.272C288.078 176.283 288.053 176.301 288.032 176.323C287.99 176.367 287.967 176.427 287.967 176.489C287.967 176.551 287.99 176.611 288.032 176.655L290.346 179.062H287.74C287.681 179.063 287.624 179.088 287.582 179.132C287.54 179.176 287.516 179.235 287.515 179.296C287.515 179.358 287.539 179.418 287.581 179.462C287.623 179.506 287.68 179.53 287.74 179.53H290.346L288.032 181.942C287.99 181.987 287.967 182.046 287.967 182.108C287.967 182.17 287.99 182.23 288.032 182.275C288.075 182.317 288.132 182.34 288.191 182.34C288.251 182.34 288.308 182.317 288.351 182.275L290.661 179.863V182.574C290.661 182.636 290.684 182.696 290.726 182.74C290.768 182.784 290.826 182.808 290.885 182.808C290.945 182.808 291.002 182.784 291.044 182.74C291.086 182.696 291.11 182.636 291.11 182.574V179.863L293.424 182.275C293.467 182.317 293.524 182.34 293.583 182.34C293.643 182.34 293.7 182.317 293.743 182.275C293.784 182.23 293.808 182.17 293.808 182.108C293.808 182.046 293.784 181.987 293.743 181.942L291.429 179.53H294.031C294.09 179.53 294.147 179.506 294.189 179.462C294.232 179.418 294.255 179.358 294.255 179.296C294.252 179.237 294.227 179.181 294.185 179.14C294.143 179.099 294.088 179.076 294.031 179.076Z" fill="#1A90FF"/>
<path d="M303.466 179.076H300.865L303.179 176.669C303.22 176.625 303.243 176.565 303.243 176.503C303.243 176.441 303.22 176.381 303.179 176.337C303.158 176.315 303.133 176.297 303.106 176.286C303.078 176.274 303.049 176.268 303.019 176.268C302.99 176.268 302.96 176.274 302.933 176.286C302.905 176.297 302.881 176.315 302.86 176.337L300.546 178.748V176.032C300.546 175.97 300.522 175.911 300.48 175.867C300.438 175.823 300.381 175.798 300.321 175.798C300.262 175.8 300.205 175.825 300.163 175.868C300.121 175.912 300.097 175.971 300.096 176.032V178.748L297.787 176.323C297.766 176.301 297.741 176.283 297.714 176.272C297.686 176.26 297.657 176.254 297.627 176.254C297.597 176.254 297.568 176.26 297.541 176.272C297.513 176.283 297.489 176.301 297.468 176.323C297.426 176.367 297.403 176.427 297.403 176.489C297.403 176.551 297.426 176.611 297.468 176.655L299.782 179.062H297.176C297.116 179.063 297.06 179.088 297.018 179.132C296.976 179.176 296.952 179.235 296.951 179.296C296.951 179.358 296.975 179.418 297.017 179.462C297.059 179.506 297.116 179.53 297.176 179.53H299.782L297.468 181.942C297.426 181.987 297.403 182.046 297.403 182.108C297.403 182.17 297.426 182.23 297.468 182.275C297.511 182.317 297.568 182.34 297.627 182.34C297.686 182.34 297.743 182.317 297.787 182.275L300.096 179.863V182.574C300.096 182.636 300.12 182.696 300.162 182.74C300.204 182.784 300.261 182.808 300.321 182.808C300.381 182.808 300.438 182.784 300.48 182.74C300.522 182.696 300.546 182.636 300.546 182.574V179.863L302.86 182.275C302.903 182.317 302.96 182.34 303.019 182.34C303.078 182.34 303.135 182.317 303.179 182.275C303.22 182.23 303.243 182.17 303.243 182.108C303.243 182.046 303.22 181.987 303.179 181.942L300.865 179.53H303.466C303.526 179.53 303.583 179.506 303.625 179.462C303.667 179.418 303.691 179.358 303.691 179.296C303.688 179.237 303.662 179.181 303.621 179.14C303.579 179.099 303.524 179.076 303.466 179.076Z" fill="#1A90FF"/>
<path d="M312.903 179.076H310.301L312.615 176.669C312.657 176.625 312.68 176.565 312.68 176.503C312.68 176.441 312.657 176.381 312.615 176.337C312.594 176.315 312.57 176.297 312.542 176.286C312.515 176.274 312.485 176.268 312.456 176.268C312.426 176.268 312.397 176.274 312.369 176.286C312.342 176.297 312.317 176.315 312.296 176.337L309.982 178.748V176.032C309.982 175.97 309.958 175.911 309.916 175.867C309.874 175.823 309.817 175.798 309.757 175.798C309.698 175.8 309.642 175.825 309.6 175.868C309.558 175.912 309.534 175.971 309.533 176.032V178.748L307.223 176.323C307.202 176.301 307.177 176.283 307.15 176.272C307.123 176.26 307.093 176.254 307.064 176.254C307.034 176.254 307.005 176.26 306.977 176.272C306.95 176.283 306.925 176.301 306.904 176.323C306.863 176.367 306.84 176.427 306.84 176.489C306.84 176.551 306.863 176.611 306.904 176.655L309.218 179.062H306.612C306.553 179.063 306.496 179.088 306.455 179.132C306.413 179.176 306.389 179.235 306.387 179.296C306.387 179.358 306.411 179.418 306.453 179.462C306.495 179.506 306.553 179.53 306.612 179.53H309.218L306.904 181.942C306.863 181.987 306.84 182.046 306.84 182.108C306.84 182.17 306.863 182.23 306.904 182.275C306.947 182.317 307.004 182.34 307.064 182.34C307.123 182.34 307.18 182.317 307.223 182.275L309.533 179.863V182.574C309.533 182.636 309.556 182.696 309.599 182.74C309.641 182.784 309.698 182.808 309.757 182.808C309.817 182.808 309.874 182.784 309.916 182.74C309.958 182.696 309.982 182.636 309.982 182.574V179.863L312.296 182.275C312.34 182.317 312.397 182.34 312.456 182.34C312.515 182.34 312.572 182.317 312.615 182.275C312.657 182.23 312.68 182.17 312.68 182.108C312.68 182.046 312.657 181.987 312.615 181.942L310.301 179.53H312.903C312.962 179.53 313.02 179.506 313.062 179.462C313.104 179.418 313.128 179.358 313.128 179.296C313.124 179.237 313.099 179.181 313.057 179.14C313.015 179.099 312.96 179.076 312.903 179.076Z" fill="#1A90FF"/>
<path d="M322.339 179.076H319.737L322.051 176.669C322.093 176.625 322.116 176.565 322.116 176.503C322.116 176.441 322.093 176.381 322.051 176.337C322.03 176.315 322.005 176.297 321.978 176.286C321.951 176.274 321.921 176.268 321.892 176.268C321.862 176.268 321.833 176.274 321.805 176.286C321.778 176.297 321.753 176.315 321.732 176.337L319.418 178.748V176.032C319.418 175.97 319.394 175.911 319.352 175.867C319.31 175.823 319.253 175.798 319.193 175.798C319.134 175.8 319.078 175.825 319.036 175.868C318.994 175.912 318.97 175.971 318.969 176.032V178.748L316.659 176.323C316.638 176.301 316.613 176.283 316.586 176.272C316.559 176.26 316.529 176.254 316.5 176.254C316.47 176.254 316.441 176.26 316.413 176.272C316.386 176.283 316.361 176.301 316.34 176.323C316.299 176.367 316.275 176.427 316.275 176.489C316.275 176.551 316.299 176.611 316.34 176.655L318.654 179.062H316.048C315.989 179.063 315.932 179.088 315.89 179.132C315.849 179.176 315.825 179.235 315.823 179.296C315.823 179.358 315.847 179.418 315.889 179.462C315.931 179.506 315.988 179.53 316.048 179.53H318.654L316.34 181.942C316.299 181.987 316.275 182.046 316.275 182.108C316.275 182.17 316.299 182.23 316.34 182.275C316.383 182.317 316.44 182.34 316.5 182.34C316.559 182.34 316.616 182.317 316.659 182.275L318.969 179.863V182.574C318.969 182.636 318.992 182.696 319.034 182.74C319.077 182.784 319.134 182.808 319.193 182.808C319.253 182.808 319.31 182.784 319.352 182.74C319.394 182.696 319.418 182.636 319.418 182.574V179.863L321.732 182.275C321.775 182.317 321.832 182.34 321.892 182.34C321.951 182.34 322.008 182.317 322.051 182.275C322.093 182.23 322.116 182.17 322.116 182.108C322.116 182.046 322.093 181.987 322.051 181.942L319.737 179.53H322.339C322.398 179.53 322.455 179.506 322.498 179.462C322.54 179.418 322.563 179.358 322.563 179.296C322.56 179.237 322.535 179.181 322.493 179.14C322.451 179.099 322.396 179.076 322.339 179.076Z" fill="#1A90FF"/>
<path d="M331.775 179.076H329.173L331.487 176.669C331.528 176.625 331.552 176.565 331.552 176.503C331.552 176.441 331.528 176.381 331.487 176.337C331.466 176.315 331.441 176.297 331.414 176.286C331.387 176.274 331.357 176.268 331.327 176.268C331.298 176.268 331.268 176.274 331.241 176.286C331.214 176.297 331.189 176.315 331.168 176.337L328.854 178.748V176.032C328.854 175.97 328.83 175.911 328.788 175.867C328.746 175.823 328.689 175.798 328.629 175.798C328.57 175.8 328.514 175.825 328.472 175.868C328.43 175.912 328.406 175.971 328.405 176.032V178.748L326.095 176.323C326.074 176.301 326.049 176.283 326.022 176.272C325.995 176.26 325.965 176.254 325.935 176.254C325.906 176.254 325.876 176.26 325.849 176.272C325.822 176.283 325.797 176.301 325.776 176.323C325.735 176.367 325.711 176.427 325.711 176.489C325.711 176.551 325.735 176.611 325.776 176.655L328.09 179.062H325.484C325.425 179.063 325.368 179.088 325.326 179.132C325.284 179.176 325.26 179.235 325.259 179.296C325.259 179.358 325.283 179.418 325.325 179.462C325.367 179.506 325.424 179.53 325.484 179.53H328.09L325.776 181.942C325.735 181.987 325.711 182.046 325.711 182.108C325.711 182.17 325.735 182.23 325.776 182.275C325.819 182.317 325.876 182.34 325.935 182.34C325.995 182.34 326.052 182.317 326.095 182.275L328.405 179.863V182.574C328.405 182.636 328.428 182.696 328.47 182.74C328.513 182.784 328.57 182.808 328.629 182.808C328.689 182.808 328.746 182.784 328.788 182.74C328.83 182.696 328.854 182.636 328.854 182.574V179.863L331.168 182.275C331.211 182.317 331.268 182.34 331.327 182.34C331.387 182.34 331.444 182.317 331.487 182.275C331.528 182.23 331.552 182.17 331.552 182.108C331.552 182.046 331.528 181.987 331.487 181.942L329.173 179.53H331.775C331.834 179.53 331.891 179.506 331.933 179.462C331.976 179.418 331.999 179.358 331.999 179.296C331.996 179.237 331.971 179.181 331.929 179.14C331.887 179.099 331.832 179.076 331.775 179.076Z" fill="#1A90FF"/>
<path d="M341.21 179.076H338.609L340.923 176.669C340.964 176.625 340.987 176.565 340.987 176.503C340.987 176.441 340.964 176.381 340.923 176.337C340.902 176.315 340.877 176.297 340.85 176.286C340.822 176.274 340.793 176.268 340.763 176.268C340.733 176.268 340.704 176.274 340.677 176.286C340.649 176.297 340.625 176.315 340.604 176.337L338.29 178.748V176.032C338.29 175.97 338.266 175.911 338.224 175.867C338.182 175.823 338.125 175.798 338.065 175.798C338.006 175.8 337.949 175.825 337.907 175.868C337.865 175.912 337.841 175.971 337.84 176.032V178.748L335.531 176.323C335.51 176.301 335.485 176.283 335.458 176.272C335.43 176.26 335.401 176.254 335.371 176.254C335.342 176.254 335.312 176.26 335.285 176.272C335.258 176.283 335.233 176.301 335.212 176.323C335.17 176.367 335.147 176.427 335.147 176.489C335.147 176.551 335.17 176.611 335.212 176.655L337.526 179.062H334.92C334.861 179.063 334.804 179.088 334.762 179.132C334.72 179.176 334.696 179.235 334.695 179.296C334.695 179.358 334.719 179.418 334.761 179.462C334.803 179.506 334.86 179.53 334.92 179.53H337.526L335.212 181.942C335.17 181.987 335.147 182.046 335.147 182.108C335.147 182.17 335.17 182.23 335.212 182.275C335.255 182.317 335.312 182.34 335.371 182.34C335.43 182.34 335.488 182.317 335.531 182.275L337.84 179.863V182.574C337.84 182.636 337.864 182.696 337.906 182.74C337.948 182.784 338.005 182.808 338.065 182.808C338.125 182.808 338.182 182.784 338.224 182.74C338.266 182.696 338.29 182.636 338.29 182.574V179.863L340.604 182.275C340.647 182.317 340.704 182.34 340.763 182.34C340.822 182.34 340.879 182.317 340.923 182.275C340.964 182.23 340.987 182.17 340.987 182.108C340.987 182.046 340.964 181.987 340.923 181.942L338.609 179.53H341.21C341.27 179.53 341.327 179.506 341.369 179.462C341.411 179.418 341.435 179.358 341.435 179.296C341.431 179.237 341.406 179.181 341.364 179.14C341.323 179.099 341.268 179.076 341.21 179.076Z" fill="#1A90FF"/>
<path d="M413.549 236.043C413.537 235.477 413.469 234.914 413.347 234.362C412.943 232.779 412.031 230.864 410.53 230.386C408.98 229.892 407.484 229.233 406.064 228.419C405.794 223.4 406.899 218.263 405.695 213.397C405.246 211.618 404.504 209.913 404.307 208.092C404.06 205.825 404.653 203.409 403.785 201.321C403.102 199.672 401.602 198.511 399.989 197.902C398.375 197.293 396.637 197.13 394.925 196.966C392.768 196.783 385.785 195.921 383.35 197.93C383.182 198.066 383.031 198.224 382.9 198.399C382.847 198.476 382.799 198.557 382.757 198.642L382.734 198.68C382.685 198.777 382.645 198.879 382.613 198.984C382.579 199.099 382.553 199.216 382.536 199.335C382.536 199.373 382.536 199.41 382.536 199.448C382.536 199.485 382.536 199.611 382.536 199.696V199.822C382.536 199.906 382.536 199.991 382.536 200.08C382.536 200.169 382.536 200.145 382.536 200.178C382.568 200.599 382.626 201.021 382.626 201.438C382.631 201.645 382.613 201.853 382.572 202.056C382.423 202.608 382.169 203.124 381.826 203.573L381.746 203.695C381.696 203.77 381.647 203.84 381.602 203.915C381.557 203.99 381.521 204.046 381.485 204.111C381.449 204.177 381.413 204.219 381.382 204.28C381.338 204.357 381.299 204.437 381.265 204.519C381.265 204.566 381.215 204.608 381.197 204.655C381.141 204.781 381.096 204.913 381.063 205.048C380.957 205.455 380.948 205.882 381.036 206.294C381.157 206.819 381.365 207.318 381.651 207.769C381.764 207.961 381.885 208.148 382.011 208.335L382.325 208.78C382.267 209.215 382.235 209.653 382.231 210.091C382.231 211.558 382.551 213.005 383.166 214.324C383.78 215.643 384.675 216.799 385.781 217.705C385.959 219.683 385.939 221.674 385.722 223.648C385.682 224.06 385.632 224.477 385.578 224.889C385.525 225.301 385.484 225.572 385.43 225.914C384.773 226.012 384.102 225.96 383.467 225.76C383.173 225.623 382.873 225.503 382.568 225.399C381.26 225.057 379.926 226.415 378.632 226.003C378.632 226.069 378.596 226.13 378.573 226.19C378.303 226.015 377.993 225.92 377.675 225.914C376.906 225.877 376.282 225.296 375.725 224.748L374.013 223.067C373.901 222.964 373.801 222.848 373.716 222.721C373.624 222.538 373.555 222.345 373.509 222.145C373.222 221.175 372.525 220.403 371.851 219.667C371.724 219.5 371.554 219.372 371.362 219.298C371.287 219.286 371.211 219.286 371.137 219.298C371.091 219.232 371.041 219.17 370.989 219.11C370.872 218.971 370.748 218.84 370.616 218.717C369.798 217.93 369.717 217.256 369.007 216.375C368.388 215.536 367.826 214.652 367.327 213.73C367.268 213.238 367.187 212.732 367.088 212.222C366.862 211.053 366.532 209.909 366.104 208.804L365.206 206.729L365.102 206.837C364.451 205.825 363.754 205.273 363.13 205.404C362.083 205.629 361.566 207.745 361.732 210.513L362.092 213.322C362.092 213.393 362.123 213.463 362.141 213.533C362.077 213.866 362.043 214.205 362.042 214.545C362.042 214.938 362.393 215.228 362.577 215.579C362.872 216.055 363.028 216.61 363.026 217.176C363.004 217.378 362.945 217.57 362.937 217.766C362.961 218.206 363.108 218.629 363.359 218.984L365.606 222.917L366.055 223.741L366.082 223.779C366.224 224.066 366.43 224.314 366.684 224.5C366.772 225.485 367.023 226.447 367.425 227.342C367.502 227.52 367.587 227.689 367.677 227.857C368.281 228.892 368.992 229.855 369.798 230.728L370.867 231.978C371.923 233.205 372.979 234.437 374.125 235.57C374.535 236.025 375.031 236.386 375.581 236.633C375.85 236.745 376.143 236.781 376.431 236.738C376.718 236.694 376.989 236.572 377.216 236.385C377.216 236.965 377.216 237.546 377.216 238.127C377.383 238.137 377.544 238.194 377.683 238.291C377.822 238.389 377.933 238.523 378.005 238.68C378.078 238.837 378.108 239.011 378.094 239.185C378.081 239.358 378.023 239.525 377.926 239.667C376.983 242.191 376.03 244.739 374.601 247C375.61 247.623 376.545 248.366 377.387 249.215C377.934 249.847 378.42 250.532 378.838 251.262C378.879 251.608 378.91 251.95 378.928 252.292C379.261 257.874 377.189 263.413 375.334 268.733C374.799 270.241 374.215 271.819 374.26 273.387C373.908 273.614 373.571 273.866 373.253 274.141C373.622 275.143 373.478 276.038 373.437 277.11C373.424 277.753 373.298 278.388 373.064 278.983C372.869 279.396 372.653 279.798 372.417 280.187C371.254 282.327 370.998 284.869 370.764 287.314C370.625 288.789 371.173 290.592 370.53 291.912C369.42 294.179 368.436 296.595 368.284 299.114C368.278 299.681 368.209 300.245 368.077 300.795C367.938 301.264 367.69 301.662 367.565 302.12C367.435 302.735 367.405 303.368 367.475 303.994C367.56 306.238 367.24 308.479 366.531 310.601C365.97 312.273 365.349 314.061 365.79 315.78C364.706 316.967 364.036 318.499 363.889 320.13C363.878 320.547 363.829 320.963 363.745 321.371C363.608 321.788 363.427 322.189 363.206 322.565C362.302 324.282 361.878 326.229 361.984 328.184C360.636 330.09 359.962 332.441 359.562 334.778C359.162 337.114 358.987 339.493 358.475 341.802C357.792 344.855 356.556 347.941 356.313 351.069C354.858 352.038 354.228 353.916 353.95 355.691C353.671 357.465 353.626 359.329 352.912 360.968C352.543 361.82 352.013 362.584 351.663 363.454C351.417 364.148 351.236 364.865 351.124 365.594C350.908 366.737 350.719 368.011 350.984 369.107C350.603 369.527 350.158 369.88 349.668 370.151C349.74 369.86 349.798 369.57 349.847 369.275C348.688 370.371 346.585 369.987 345.66 371.303C345.382 371.727 345.273 372.247 345.357 372.753C345.441 373.259 345.711 373.712 346.109 374.014C346.399 374.198 346.712 374.338 347.039 374.431C349.286 375.18 351.595 375.934 353.905 375.536C354.178 375.505 354.442 375.418 354.682 375.278C354.983 375.048 355.23 374.75 355.406 374.407C355.752 373.836 356.098 373.265 356.439 372.693C357.267 372.951 358.109 373.156 358.96 373.307C359.045 374.056 359.108 374.805 359.14 375.555C359.589 375.648 360.191 375.676 360.402 375.241C360.466 375.076 360.492 374.898 360.479 374.721C360.479 374.389 360.524 373.948 360.551 373.499H360.64C362.011 373.557 363.375 373.269 364.617 372.661C364.136 368.512 365.722 364.457 367.097 360.533C368.549 356.402 369.793 352.197 371.047 347.992C371.946 345.033 372.939 342.167 373.819 339.203C374.928 335.457 376.041 331.71 377.158 327.964C377.643 326.316 378.133 324.686 378.69 323.047C379.863 319.731 381.255 316.503 382.855 313.387C383.305 312.502 383.754 311.626 384.123 310.709C384.572 309.589 384.891 308.419 385.25 307.262C386.034 304.889 386.977 302.576 388.072 300.341C388.104 300.28 388.126 300.224 388.158 300.168C388.522 301.718 388.886 303.291 389.128 304.85C389.457 306.762 389.482 308.718 389.205 310.638C388.989 311.945 388.58 313.237 388.629 314.562C388.697 316.393 389.636 318.056 390.099 319.821C390.397 321.142 390.566 322.492 390.602 323.848C390.728 325.955 391.824 328.32 391.051 330.273C388.647 336.459 389.811 343.445 388.441 349.94C387.735 353.274 385.574 356.407 385.745 359.816C385.865 362.235 386.068 364.649 386.356 367.056C386.425 367.815 386.615 368.557 386.917 369.252C387.097 369.617 387.303 369.968 387.533 370.301C387.335 370.38 387.169 370.591 387.025 371.036C386.657 372.206 387.025 373.658 388.023 374.314C388.429 374.54 388.868 374.698 389.321 374.782C389.932 374.963 390.564 375.054 391.2 375.054C391.397 375.042 391.594 375.017 391.788 374.979C392.483 375.283 393.192 375.549 393.914 375.775C393.914 375.967 393.95 376.159 393.972 376.351C393.973 376.451 393.995 376.55 394.035 376.641C394.075 376.732 394.133 376.814 394.206 376.88C394.318 376.934 394.442 376.957 394.565 376.945H397.005C397.005 376.735 397.005 376.519 397.005 376.309C397.284 376.339 397.566 376.308 397.833 376.218C398.1 376.127 398.346 375.98 398.555 375.784C398.771 375.497 398.925 375.165 399.005 374.81C399.67 372.459 400.33 370.107 400.986 367.753C401.773 365.151 402.1 362.423 401.952 359.699C401.085 351.069 402.99 342.41 402.37 333.757C401.997 328.556 402.253 323.326 403.134 318.192C403.336 317.03 403.583 315.85 403.673 314.694C403.871 312.511 403.628 310.306 403.776 308.138C403.826 307.379 403.925 306.625 404.015 305.871C404.63 301.192 404.953 296.476 404.981 291.753C404.967 290.188 404.874 288.625 404.702 287.07C405.171 286.946 405.596 286.686 405.929 286.321C406.329 285.778 406.225 285.015 406.221 284.322C406.221 282.664 406.89 281.1 407.43 279.536C408.122 277.379 408.689 275.18 409.128 272.952C409.592 271.156 409.846 269.309 409.883 267.45C409.883 267.262 409.874 267.075 409.856 266.888C410.025 266.766 410.166 266.606 410.269 266.42C410.387 266.145 410.459 265.852 410.485 265.553C410.647 264.359 410.813 263.16 410.975 261.962C411.095 261.103 411.213 260.246 411.33 259.391L412.759 249C412.88 248.096 413.006 247.197 413.127 246.298L413.5 243.61C413.54 243.292 413.585 242.973 413.617 242.674C414.713 240.763 413.666 238.216 413.549 236.043ZM401.629 274.947C401.098 273.636 400.604 272.292 400.73 270.877H400.681C400.799 270.442 400.778 269.979 400.622 269.557C400.483 269.215 400.24 268.925 400.092 268.583C399.933 268.166 399.85 267.721 399.849 267.272C399.738 264.424 399.953 261.572 400.492 258.777C400.55 258.45 400.613 258.117 400.672 257.789C400.86 257.676 401.032 257.536 401.184 257.373C401.42 257.092 401.615 256.776 401.763 256.436C402.271 255.373 402.734 254.291 403.161 253.191C403.3 252.835 403.502 252.423 403.848 252.334C403.776 255.073 404.046 257.869 402.977 260.341C402.773 260.74 402.622 261.165 402.527 261.606C402.428 262.303 402.707 263.011 402.608 263.704C402.559 264.064 402.41 264.397 402.352 264.753C402.308 264.927 402.308 265.111 402.354 265.285C402.4 265.46 402.489 265.618 402.613 265.745C402.672 265.789 402.737 265.823 402.806 265.848C402.779 266.036 402.756 266.228 402.738 266.41C402.703 266.794 402.685 267.155 402.662 267.379C402.559 268.525 402.518 269.676 402.541 270.826C402.541 272.067 402.586 273.308 402.568 274.572C402.584 274.935 402.526 275.298 402.397 275.635C402.308 275.809 402.193 275.967 402.055 276.103C401.925 275.682 401.781 275.312 401.629 274.947Z" fill="url(#paint0_linear)"/>
<path d="M366.159 220.611C367.53 220.318 367.996 216.801 367.201 212.755C366.405 208.709 364.649 205.666 363.278 205.959C361.907 206.252 361.44 209.769 362.236 213.815C363.031 217.861 364.788 220.904 366.159 220.611Z" fill="#FBBEBE"/>
<path d="M387.097 371.123C386.728 372.284 387.097 373.736 388.094 374.368C388.499 374.592 388.934 374.75 389.384 374.836C389.994 375.015 390.624 375.105 391.258 375.103C392.035 375.065 392.781 374.747 393.558 374.635C393.648 374.611 393.743 374.625 393.824 374.672C393.862 374.716 393.892 374.768 393.909 374.824C393.926 374.881 393.93 374.941 393.922 375C393.931 375.46 393.964 375.92 394.021 376.377C394.022 376.477 394.043 376.576 394.083 376.667C394.124 376.759 394.182 376.84 394.255 376.906C394.367 376.96 394.491 376.983 394.614 376.971H397.05C397.105 374.742 396.871 372.514 396.353 370.35C396.32 370.184 396.259 370.026 396.174 369.882C395.967 369.646 395.695 369.482 395.396 369.413C394.801 369.155 394.158 369.039 393.514 369.072C392.727 369.179 392.071 369.708 391.402 370.149C390.732 370.589 389.82 370.978 389.007 370.753C388.193 370.528 387.515 369.821 387.097 371.123Z" fill="#3F3D56"/>
<path d="M351.339 369.067C350.654 369.831 349.814 370.426 348.881 370.809L348.468 371.015C348.41 371.038 348.362 371.079 348.328 371.132C348.32 371.168 348.32 371.206 348.328 371.243C348.336 371.279 348.351 371.313 348.373 371.343C348.717 371.897 349.225 372.319 349.821 372.545C350.416 372.771 351.066 372.788 351.671 372.593C351.939 372.523 352.187 372.388 352.395 372.2C352.737 371.776 352.933 371.245 352.952 370.692C353.088 370.121 353.065 369.521 352.884 368.964C352.26 367.498 352.031 368.163 351.339 369.067Z" fill="#FBBEBE"/>
<path d="M360.676 374.837C360.69 375.014 360.663 375.192 360.599 375.357C360.388 375.788 359.8 375.765 359.341 375.671C359.272 374.082 359.087 372.501 358.789 370.941C357.917 370.899 357.288 371.761 356.82 372.533L355.616 374.524C355.442 374.866 355.196 375.164 354.897 375.395C354.656 375.532 354.393 375.619 354.12 375.652C351.819 376.05 349.496 375.296 347.277 374.547C346.95 374.456 346.637 374.317 346.346 374.135C345.95 373.832 345.682 373.381 345.599 372.876C345.515 372.371 345.622 371.852 345.897 371.428C346.827 370.117 348.917 370.492 350.076 369.405C349.955 370.17 349.756 370.919 349.483 371.639C351.033 371.396 352.075 369.916 353.325 368.928C353.638 368.65 354.016 368.463 354.421 368.385C354.724 368.358 355.029 368.391 355.32 368.483C356.76 368.861 358.108 369.552 359.274 370.51C359.746 370.899 360.482 371.447 360.689 372.046C360.909 372.763 360.676 374.074 360.676 374.837Z" fill="#3F3D56"/>
<path d="M391.585 220.335C396.712 220.335 400.868 216.004 400.868 210.661C400.868 205.318 396.712 200.986 391.585 200.986C386.458 200.986 382.302 205.318 382.302 210.661C382.302 216.004 386.458 220.335 391.585 220.335Z" fill="#FBBEBE"/>
<path d="M409.874 267.781C409.836 269.63 409.584 271.468 409.124 273.255C408.684 275.474 408.117 277.663 407.425 279.811C406.89 281.37 406.221 282.934 406.225 284.587C406.225 285.275 406.333 286.039 405.929 286.582C405.569 286.963 405.115 287.234 404.617 287.364C404.368 287.433 404.139 287.561 403.947 287.739C403.755 287.918 403.606 288.14 403.511 288.389C403.089 287.733 402.774 287.008 402.577 286.245C401.771 283.672 401.022 281.086 400.33 278.486C400.267 278.336 400.239 278.172 400.25 278.009C400.261 277.846 400.31 277.688 400.393 277.549C400.507 277.446 400.64 277.368 400.784 277.32C401.244 277.124 401.666 276.841 402.028 276.486C402.198 276.329 402.339 276.14 402.442 275.929C402.572 275.593 402.632 275.232 402.617 274.871C402.617 273.63 402.617 272.393 402.586 271.152C402.567 270.007 402.609 268.861 402.711 267.72C402.711 267.495 402.752 267.135 402.788 266.751C402.855 266.015 402.99 265.163 403.372 264.878C403.943 264.48 405.65 265.013 406.297 265.107C407.412 265.266 408.544 265.454 409.631 265.674C409.789 266.364 409.871 267.071 409.874 267.781Z" fill="#3F3D56"/>
<path d="M372.39 221.493C372.03 222.243 371.168 222.603 370.503 223.076L368.224 224.706C368.072 224.849 367.894 224.958 367.7 225.027C367.506 225.096 367.301 225.124 367.097 225.108C366.911 225.037 366.741 224.928 366.597 224.787C366.453 224.646 366.337 224.477 366.256 224.289C366.258 224.276 366.258 224.264 366.256 224.251L365.785 223.427L363.538 219.503C363.288 219.152 363.143 218.732 363.12 218.295C363.12 218.094 363.187 217.906 363.205 217.705C363.211 217.139 363.055 216.585 362.756 216.113C362.576 215.762 362.217 215.471 362.226 215.078C362.209 214.561 362.294 214.046 362.477 213.565C362.713 213.121 363.051 212.744 363.461 212.47C363.673 212.31 363.888 212.161 364.113 212.001C364.232 211.917 364.364 211.853 364.504 211.814C364.877 211.735 365.245 212.058 365.623 212.072C367.245 213.205 367.869 215.35 369.146 216.895C369.865 217.775 369.936 218.45 370.75 219.236C370.88 219.358 371.006 219.489 371.127 219.625C371.288 219.808 371.424 220.012 371.532 220.234C371.68 220.636 372.574 221.109 372.39 221.493Z" fill="#3F3D56"/>
<path d="M388.323 220.34C388.993 221.815 389.514 223.435 389.321 225.056C389.281 225.494 389.148 225.919 388.93 226.296C388.283 227.331 386.926 227.519 385.744 227.58C385.495 227.558 385.245 227.588 385.007 227.668C384.769 227.749 384.55 227.878 384.36 228.048C384.202 228.287 384.125 228.574 384.141 228.864C384.156 229.154 384.263 229.43 384.446 229.649C384.825 230.072 385.297 230.393 385.821 230.586C387.69 231.443 389.707 232.15 391.738 231.953C392.682 231.86 393.599 231.574 394.538 231.429C395.561 231.313 396.59 231.254 397.62 231.251C398.842 231.204 400.06 231.077 401.278 230.951L404.504 230.619C404.68 230.621 404.851 230.556 404.985 230.436C405.223 230.146 404.917 229.72 404.621 229.499C402.909 228.179 400.73 227.27 399.754 225.285C399.305 224.348 399.166 223.234 398.833 222.223C398.501 221.211 397.971 220.298 397.764 219.268C397.654 218.364 397.604 217.453 397.616 216.542C397.627 215.624 397.306 214.735 396.717 214.051C396.074 213.428 395.144 213.269 394.273 213.232C392.125 213.133 389.838 213.667 388.314 215.245C387.906 215.671 387.555 216.182 387.133 216.566C386.71 216.95 386.135 217.062 386.414 217.568C386.692 218.074 387.241 218.387 387.537 218.832C387.837 219.312 388.1 219.816 388.323 220.34Z" fill="#FBBEBE"/>
<path d="M406.625 233.961C406.058 237.567 405.137 241.102 403.875 244.511C403.241 246.051 402.7 247.63 402.257 249.241C401.911 250.692 401.979 252.247 401.66 253.703C401.264 255.516 400.869 257.333 400.55 259.159C400.015 261.948 399.8 264.793 399.912 267.634C399.913 268.082 399.995 268.525 400.155 268.941C400.303 269.278 400.541 269.568 400.68 269.915C400.784 270.219 400.827 270.543 400.805 270.865C400.784 271.188 400.698 271.502 400.554 271.788C400.324 272.324 400.011 272.817 399.629 273.249C395.441 274.551 390.961 274.125 386.598 274.401C382.576 274.654 378.51 275.515 374.547 274.799C374.097 272.926 374.848 270.964 375.49 269.138C377.355 263.832 379.418 258.307 379.085 252.748C379.05 252.1 378.98 251.454 378.874 250.814C378.222 246.876 378.932 242.797 380.069 238.981C380.775 236.602 380.743 234.069 380.581 231.592C380.501 230.787 380.491 229.977 380.55 229.171C380.615 228.347 380.908 227.562 381.395 226.909C381.395 226.876 381.435 226.843 381.458 226.811C381.48 226.778 381.655 226.783 381.795 226.811C381.83 226.826 381.868 226.834 381.907 226.834C381.945 226.834 381.984 226.826 382.019 226.811L382.069 226.778C382.088 226.764 382.11 226.756 382.134 226.756C382.157 226.756 382.18 226.764 382.199 226.778C382.302 226.843 382.361 227.068 382.585 227.11C382.917 227.163 383.252 227.196 383.587 227.209C383.991 227.221 384.392 227.281 384.783 227.387H384.837C385.421 227.489 386.021 227.436 386.58 227.232C386.952 227.135 387.311 226.99 387.649 226.801C387.748 226.689 388.368 226.586 388.494 226.506C388.903 226.249 388.813 225.041 388.899 224.544C388.946 224.046 389.059 223.558 389.236 223.093C389.44 222.749 389.723 222.463 390.058 222.26C390.393 222.057 390.771 221.942 391.159 221.927C391.932 221.907 392.706 221.98 393.464 222.142C395.14 222.39 396.856 222.348 398.501 222.751C399.328 222.952 400.231 223.256 400.99 222.863C401.197 222.915 401.228 223.102 401.228 223.331C401.209 223.549 401.167 223.765 401.103 223.973C400.815 225.265 401.79 226.455 402.689 227.391C403.068 227.833 403.517 228.205 404.014 228.492C404.464 228.707 404.913 228.796 405.362 229.03C405.726 229.233 406.035 229.527 406.261 229.887C406.52 230.3 406.694 230.764 406.773 231.25C406.87 232.156 406.82 233.072 406.625 233.961Z" fill="#3F3D56"/>
<path opacity="0.1" d="M406.625 233.961C406.059 237.567 405.137 241.102 403.875 244.511C403.241 246.051 402.701 247.63 402.258 249.241C401.912 250.692 401.979 252.247 401.66 253.703C401.265 255.516 400.869 257.332 400.55 259.159C400.456 259.215 400.357 259.266 400.258 259.313C399.699 259.591 399.107 259.79 398.497 259.903C397.401 260.041 396.292 260.003 395.208 259.791L388.796 258.896C386.234 258.536 383.507 258.1 381.606 256.293C380.55 255.3 379.858 253.989 379.099 252.725C379.064 252.076 378.994 251.431 378.888 250.791C378.236 246.853 378.946 242.774 380.083 238.958C380.789 236.579 380.757 234.045 380.595 231.568C380.515 230.764 380.505 229.954 380.564 229.147C380.629 228.324 380.922 227.538 381.409 226.885C381.54 226.845 381.673 226.814 381.809 226.792C381.899 226.773 381.991 226.76 382.083 226.754H382.213C382.364 226.755 382.515 226.774 382.662 226.811C382.968 226.912 383.268 227.033 383.561 227.171H383.615C384 227.303 384.405 227.364 384.81 227.349C385.403 227.349 386.014 227.251 386.607 227.209C387.34 227.089 388.09 227.23 388.737 227.607C389.155 227.957 389.551 228.333 389.923 228.735C390.373 229.103 390.879 229.39 391.42 229.583C395.288 231.121 399.579 231.027 403.381 229.321C403.746 229.104 404.161 228.994 404.581 229.002C404.891 229.065 405.185 229.196 405.443 229.386C405.713 229.55 405.978 229.709 406.252 229.854C406.511 230.267 406.686 230.731 406.764 231.217C406.867 232.133 406.82 233.061 406.625 233.961Z" fill="black"/>
<path d="M410.539 230.861C408.749 230.292 407.03 229.506 405.416 228.52C405.157 228.331 404.863 228.201 404.554 228.136C404.132 228.131 403.717 228.24 403.349 228.454C399.549 230.161 395.259 230.255 391.393 228.716C390.853 228.522 390.347 228.235 389.896 227.869C389.523 227.468 389.127 227.091 388.71 226.74C387.232 225.743 385.187 226.914 383.534 226.272C383.24 226.136 382.94 226.015 382.635 225.911C381.327 225.57 379.997 226.928 378.712 226.516C378.234 227.87 377.881 229.268 377.656 230.692C377.474 232.328 377.376 233.972 377.364 235.619C377.364 236.607 377.319 237.595 377.364 238.583C377.523 238.61 377.674 238.671 377.809 238.762C377.943 238.853 378.058 238.972 378.146 239.112C378.205 239.275 378.229 239.45 378.217 239.624C378.204 239.798 378.156 239.966 378.074 240.119C377.135 242.633 376.183 245.176 374.758 247.428C375.762 248.052 376.694 248.793 377.535 249.639C379.108 251.371 379.881 253.802 381.579 255.403C383.493 257.206 386.221 257.646 388.768 258.002L395.18 258.896C396.266 259.108 397.377 259.148 398.474 259.013C399.083 258.898 399.673 258.698 400.231 258.419C400.595 258.26 400.928 258.031 401.211 257.744C401.447 257.464 401.643 257.148 401.79 256.808C402.298 255.75 402.761 254.668 403.188 253.572C403.336 253.183 403.561 252.729 403.965 252.696C406.346 250.458 408.593 248.164 410.975 245.925C411.932 245.099 412.79 244.155 413.531 243.116C414.713 241.294 413.639 238.714 413.531 236.513C413.518 235.95 413.451 235.39 413.329 234.841C412.943 233.245 412.035 231.334 410.539 230.861Z" fill="#1A90FF"/>
<path opacity="0.1" d="M372.39 221.491C372.03 222.24 371.168 222.601 370.503 223.074L368.224 224.703C368.072 224.846 367.894 224.956 367.7 225.025C367.506 225.094 367.301 225.122 367.097 225.106C366.911 225.035 366.741 224.926 366.597 224.785C366.453 224.644 366.337 224.475 366.256 224.287C366.256 224.179 366.256 224.062 366.256 223.949C366.239 223.57 366.288 223.191 366.4 222.83C366.623 222.301 366.969 221.837 367.407 221.482C368.253 220.647 369.259 220.008 370.359 219.609C370.53 219.539 370.717 219.52 370.898 219.552C370.968 219.571 371.035 219.601 371.096 219.641C371.256 219.824 371.393 220.029 371.5 220.25C371.68 220.634 372.574 221.107 372.39 221.491Z" fill="black"/>
<path d="M377.755 226.428C376.991 226.39 376.367 225.814 375.81 225.266L374.107 223.618C373.993 223.518 373.893 223.401 373.81 223.272C373.718 223.089 373.649 222.896 373.603 222.696C373.242 221.75 372.676 220.903 371.95 220.223C371.823 220.055 371.653 219.929 371.46 219.858C371.277 219.823 371.089 219.842 370.916 219.914C369.816 220.313 368.81 220.952 367.964 221.787C367.527 222.143 367.181 222.606 366.958 223.136C366.845 223.497 366.796 223.876 366.814 224.255C366.824 225.492 367.091 226.712 367.596 227.832C367.672 228.006 367.758 228.179 367.847 228.348C368.447 229.38 369.155 230.34 369.959 231.209L371.029 232.454C372.08 233.681 373.132 234.908 374.273 236.037C374.682 236.491 375.178 236.852 375.729 237.095C376.005 237.212 376.308 237.248 376.602 237.199C376.897 237.149 377.173 237.016 377.4 236.814C377.616 236.554 377.778 236.251 377.877 235.924C378.569 234.051 379.225 232.103 379.265 230.085C379.275 229.277 379.242 228.468 379.166 227.664C379.099 226.812 378.519 226.479 377.755 226.428Z" fill="#1A90FF"/>
<path d="M404.985 291.985C404.959 296.696 404.638 301.399 404.023 306.066C403.933 306.82 403.835 307.574 403.785 308.328C403.637 310.515 403.879 312.711 403.682 314.884C403.578 316.059 403.345 317.225 403.147 318.372C402.269 323.493 402.012 328.708 402.383 333.895C403.003 342.526 401.103 351.161 401.965 359.767C402.07 361.441 401.981 363.122 401.7 364.773C401.539 365.798 401.307 366.809 401.004 367.798C400.348 370.143 399.689 372.484 399.027 374.822C398.949 375.178 398.795 375.511 398.577 375.796C398.348 376.003 398.079 376.156 397.789 376.246C397.498 376.335 397.193 376.359 396.892 376.316C394.3 376.232 391.86 375.066 389.505 373.928C389.235 373.817 388.984 373.658 388.764 373.46C388.274 372.931 388.315 372.097 388.099 371.399C387.883 370.702 387.299 370.046 386.967 369.33C386.693 368.652 386.528 367.932 386.477 367.199C386.177 364.801 385.973 362.394 385.866 359.978C385.695 356.579 387.852 353.45 388.562 350.145C389.91 343.645 388.768 336.677 391.163 330.51C391.918 328.562 390.822 326.202 390.714 324.104C390.675 322.751 390.507 321.405 390.211 320.086C389.761 318.325 388.813 316.668 388.746 314.842C388.696 313.521 389.105 312.233 389.317 310.931C389.597 309.016 389.571 307.065 389.24 305.158C389.002 303.584 388.638 302.011 388.274 300.475L388.193 300.648C387.098 302.878 386.157 305.186 385.376 307.555C385.016 308.703 384.702 309.873 384.253 310.988C383.884 311.924 383.43 312.781 382.985 313.661C381.39 316.766 380.001 319.981 378.829 323.284C378.272 324.905 377.782 326.562 377.297 328.187L373.967 339.426C373.069 342.381 372.085 345.237 371.204 348.187C369.959 352.402 368.715 356.579 367.268 360.699C365.92 364.609 364.316 368.66 364.796 372.79C363.557 373.397 362.197 373.684 360.829 373.628C358.513 373.415 356.241 372.84 354.089 371.924C353.23 371.591 352.341 371.217 351.761 370.481C350.764 369.212 351.011 367.353 351.312 365.738C351.425 365.01 351.606 364.295 351.851 363.603C352.193 362.741 352.75 361.978 353.1 361.125C353.806 359.491 353.851 357.642 354.129 355.867C354.408 354.092 355.028 352.219 356.484 351.254C356.731 348.136 357.962 345.059 358.64 342.011C359.153 339.702 359.323 337.328 359.728 334.987C360.132 332.645 360.784 330.304 362.141 328.407C362.034 326.452 362.457 324.504 363.363 322.788C363.582 322.411 363.761 322.011 363.898 321.594C363.981 321.187 364.03 320.774 364.041 320.358C364.19 318.731 364.858 317.202 365.938 316.017C365.488 314.308 366.113 312.524 366.675 310.866C367.382 308.751 367.702 306.516 367.618 304.277C367.549 303.652 367.577 303.02 367.704 302.404C367.829 301.936 368.077 301.538 368.22 301.088C368.348 300.538 368.416 299.974 368.423 299.407C368.598 296.874 369.582 294.486 370.669 292.224C371.316 290.904 370.768 289.11 370.903 287.64C371.136 285.195 371.393 282.667 372.556 280.536C372.772 280.133 373.006 279.749 373.199 279.333C373.433 278.738 373.56 278.102 373.572 277.459C373.612 276.387 373.756 275.497 373.388 274.5C375.792 272.416 379.072 271.831 382.199 271.69C385.326 271.55 388.49 271.845 391.55 271.152C392.448 270.941 393.347 270.651 394.295 270.51C396.447 270.183 398.631 270.693 400.757 271.199C400.608 272.604 401.103 273.952 401.655 275.259C403.813 280.551 404.945 286.235 404.985 291.985Z" fill="#33313F"/>
<path opacity="0.1" d="M394.403 293.057L389.24 305.158C389.002 303.584 388.638 302.011 388.274 300.475L388.193 300.648V300.395L391.006 293.947L394.403 293.057Z" fill="black"/>
<path opacity="0.1" d="M409.874 267.781C409.576 268.013 409.22 268.151 408.849 268.179C408.28 268.2 407.712 268.119 407.169 267.94L403.125 266.887C402.998 266.854 402.874 266.809 402.756 266.751C402.824 266.016 402.958 265.163 403.34 264.878C403.911 264.48 405.618 265.013 406.265 265.107C407.38 265.266 408.512 265.454 409.599 265.674C409.768 266.363 409.86 267.07 409.874 267.781Z" fill="black"/>
<path d="M413.293 239.919C413.378 240.308 413.5 240.692 413.571 241.085C413.692 242.051 413.66 243.03 413.477 243.984L413.109 246.663L412.74 249.355L411.316 259.718L410.965 262.284L410.471 265.866C410.448 266.164 410.375 266.456 410.255 266.728C410.108 266.982 409.902 267.195 409.657 267.346C409.411 267.497 409.134 267.583 408.849 267.594C408.28 267.613 407.712 267.532 407.168 267.355L403.124 266.297C402.947 266.264 402.778 266.192 402.63 266.086C402.506 265.961 402.417 265.803 402.371 265.629C402.325 265.455 402.325 265.272 402.369 265.098C402.428 264.742 402.576 264.41 402.625 264.054C402.724 263.361 402.446 262.649 402.545 261.961C402.641 261.523 402.792 261.099 402.994 260.701C404.342 257.597 403.56 253.972 404.018 250.601C404.431 247.947 405.506 245.454 407.137 243.371C408.143 242.056 409.299 240.873 410.579 239.849C411.082 239.442 411.882 238.604 412.515 238.444C413.329 238.266 413.158 239.329 413.293 239.919Z" fill="#1A90FF"/>
<path d="M382.689 199.581C382.392 200.565 382.855 201.646 382.644 202.648C382.415 203.753 381.417 204.521 381.134 205.631C380.685 207.322 382.06 208.862 383.066 210.267C386.796 215.484 386.306 222.704 385.03 229.068C384.003 234.174 382.583 239.185 380.784 244.053C380.222 245.565 379.602 247.101 378.497 248.235C380.564 247.616 382.761 246.994 384.832 247.593C387.456 248.352 389.721 251.007 392.381 250.403C393.981 250.033 395.104 248.553 396.542 247.734C399.238 246.221 402.487 247.172 405.493 247.659C406.14 247.818 406.818 247.782 407.447 247.556C407.928 247.286 408.336 246.895 408.633 246.418C409.975 244.624 410.778 242.457 410.943 240.19C411.014 239.06 410.854 237.928 410.474 236.868C410.094 235.808 409.501 234.845 408.737 234.041C408.099 233.414 407.335 232.908 406.845 232.168C406.369 231.304 406.114 230.327 406.104 229.33C405.749 224.179 406.953 218.921 405.713 213.938C405.263 212.164 404.531 210.464 404.333 208.647C404.086 206.385 404.675 203.964 403.812 201.894C403.134 200.251 401.637 199.085 400.024 198.485C398.411 197.886 396.686 197.717 394.974 197.549C392.511 197.333 383.718 196.233 382.689 199.581Z" fill="#33313F"/>
<g opacity="0.1">
<path opacity="0.1" d="M385.03 229.068C384.008 234.153 382.596 239.143 380.806 243.992C381.116 243.35 381.377 242.676 381.624 242.007C383.425 237.139 384.845 232.128 385.87 227.022C387.151 220.654 387.64 213.442 383.911 208.221C383.012 206.975 381.857 205.627 381.898 204.166C381.566 204.608 381.308 205.105 381.134 205.636C380.685 207.327 382.06 208.867 383.066 210.272C386.796 215.484 386.306 222.705 385.03 229.068Z" fill="black"/>
<path opacity="0.1" d="M382.698 202.176C383.059 201.709 383.327 201.173 383.489 200.598C383.558 199.902 383.54 199.2 383.435 198.509C383.089 198.781 382.829 199.154 382.689 199.582C382.424 200.41 382.729 201.31 382.698 202.176Z" fill="black"/>
<path opacity="0.1" d="M409.479 244.356C409.181 244.832 408.773 245.222 408.292 245.489C407.664 245.721 406.985 245.757 406.338 245.592C403.332 245.124 400.047 244.16 397.387 245.672C395.944 246.487 394.826 247.967 393.222 248.341C390.566 248.959 388.301 246.304 385.677 245.532C383.817 244.993 381.858 245.438 379.984 246C379.612 246.827 379.109 247.584 378.497 248.238C380.564 247.62 382.761 246.997 384.832 247.597C387.456 248.355 389.721 251.01 392.381 250.406C393.981 250.036 395.104 248.557 396.542 247.737C399.238 246.225 402.487 247.175 405.493 247.662C406.141 247.821 406.818 247.786 407.448 247.559C407.928 247.29 408.336 246.898 408.634 246.421C409.448 245.302 410.077 244.048 410.494 242.713C410.194 243.285 409.854 243.834 409.479 244.356Z" fill="black"/>
</g>
</g>
<defs>
<linearGradient id="paint0_linear" x1="345.359" y1="286.78" x2="414.107" y2="286.78" gradientUnits="userSpaceOnUse">
<stop stop-color="#808080" stop-opacity="0.25"/>
<stop offset="0.54" stop-color="#808080" stop-opacity="0.12"/>
<stop offset="1" stop-color="#808080" stop-opacity="0.1"/>
</linearGradient>
<clipPath id="clip0">
<rect width="524" height="377" fill="white"/>
</clipPath>
</defs>
</svg>