<svg width="343" height="35" viewBox="0 0 343 35" fill="none" xmlns="http://www.w3.org/2000/svg">
<path d="M2.46044 26H5.74102C7.0943 26 8.2015 27.108 8.2015 28.4623V31.7453C8.2015 33.0996 7.0943 34.2076 5.74102 34.2076H2.46044C1.1072 34.2076 0 33.0996 0 31.7453V28.4623C0 27.108 1.1072 26 2.46044 26Z" fill="#096dd9"/>
<path d="M41.256 13.362H34.371V6.987C34.371 6.307 34.269 5.882 34.065 5.712C33.895 5.508 33.47 5.406 32.79 5.406H22.794C22.114 5.406 21.672 5.508 21.468 5.712C21.298 5.882 21.213 6.307 21.213 6.987V29.529C21.213 30.209 21.298 30.651 21.468 30.855C21.672 31.025 22.114 31.11 22.794 31.11H32.79C33.47 31.11 33.895 31.025 34.065 30.855C34.269 30.651 34.371 30.209 34.371 29.529V23.154H41.256V30.09C41.256 32.776 39.913 34.119 37.227 34.119H18.357C15.671 34.119 14.328 32.776 14.328 30.09V6.426C14.328 3.74 15.671 2.397 18.357 2.397H37.227C39.913 2.397 41.256 3.74 41.256 6.426V13.362ZM66.4022 29.529V13.974C66.4022 13.328 66.3002 12.903 66.0962 12.699C65.9262 12.495 65.5012 12.393 64.8212 12.393H55.8962C55.2502 12.393 54.8252 12.495 54.6212 12.699C54.4172 12.903 54.3152 13.328 54.3152 13.974V29.529C54.3152 30.209 54.4172 30.651 54.6212 30.855C54.8252 31.025 55.2502 31.11 55.8962 31.11H64.8212C65.5012 31.11 65.9262 31.025 66.0962 30.855C66.3002 30.651 66.4022 30.209 66.4022 29.529ZM51.8162 9.384H68.9012C71.5872 9.384 72.9302 10.727 72.9302 13.413V30.09C72.9302 32.776 71.5872 34.119 68.9012 34.119H51.8162C49.1302 34.119 47.7872 32.776 47.7872 30.09V13.413C47.7872 10.727 49.1302 9.384 51.8162 9.384ZM88.4199 31.11H96.8859C97.532 31.11 97.991 30.991 98.263 30.753C98.535 30.481 98.671 30.039 98.671 29.427V14.076C98.671 13.464 98.535 13.039 98.263 12.801C97.991 12.529 97.532 12.393 96.8859 12.393H88.4199C87.7399 12.393 87.2979 12.495 87.0939 12.699C86.9239 12.903 86.8389 13.328 86.8389 13.974V29.529C86.8389 30.209 86.9239 30.651 87.0939 30.855C87.2979 31.025 87.7399 31.11 88.4199 31.11ZM98.671 0H105.25V34.119H98.671V32.538C98.263 33.592 97.311 34.119 95.8149 34.119H84.2889C81.6029 34.119 80.2599 32.776 80.2599 30.09V13.413C80.2599 10.727 81.6029 9.384 84.2889 9.384H95.8149C97.311 9.384 98.263 9.911 98.671 10.965V0ZM119.561 19.941H132.056V13.974C132.056 13.328 131.954 12.903 131.75 12.699C131.546 12.495 131.121 12.393 130.475 12.393H121.142C120.462 12.393 120.02 12.495 119.816 12.699C119.646 12.903 119.561 13.328 119.561 13.974V19.941ZM117.011 9.384H134.453C137.139 9.384 138.482 10.727 138.482 13.413V22.95H119.561V29.529C119.561 30.209 119.646 30.651 119.816 30.855C120.02 31.025 120.462 31.11 121.142 31.11H130.373C131.019 31.11 131.444 31.025 131.648 30.855C131.852 30.651 131.954 30.209 131.954 29.529V26.724H138.38V30.09C138.38 32.776 137.037 34.119 134.351 34.119H117.011C114.325 34.119 112.982 32.776 112.982 30.09V13.413C112.982 10.727 114.325 9.384 117.011 9.384ZM157.034 9.333H161.471V12.648H155.861C153.515 12.648 152.342 13.923 152.342 16.473V34.119H145.763V9.384H152.342V12.444C152.988 10.37 154.552 9.333 157.034 9.333ZM182.405 29.58V24.888C182.405 24.242 182.303 23.817 182.099 23.613C181.895 23.409 181.47 23.307 180.824 23.307H169.349C166.663 23.307 165.32 21.964 165.32 19.278V13.413C165.32 10.727 166.663 9.384 169.349 9.384H184.7C187.386 9.384 188.729 10.727 188.729 13.413V16.524H182.303V13.923C182.303 13.243 182.201 12.818 181.997 12.648C181.793 12.444 181.368 12.342 180.722 12.342H173.48C172.834 12.342 172.409 12.444 172.205 12.648C172.001 12.818 171.899 13.243 171.899 13.923V18.717C171.899 19.397 172.001 19.839 172.205 20.043C172.409 20.213 172.834 20.298 173.48 20.298H184.904C187.59 20.298 188.933 21.641 188.933 24.327V30.09C188.933 32.776 187.59 34.119 184.904 34.119H169.502C166.816 34.119 165.473 32.776 165.473 30.09V26.979H171.899V29.58C171.899 30.226 172.001 30.651 172.205 30.855C172.409 31.059 172.834 31.161 173.48 31.161H180.824C181.47 31.161 181.895 31.059 182.099 30.855C182.303 30.651 182.405 30.226 182.405 29.58Z" fill="white"/>
<path d="M196.624 2.397H219.931C222.617 2.397 223.96 3.74 223.96 6.426V15.249C223.96 17.153 223.11 18.156 221.41 18.258C223.11 18.462 223.96 19.448 223.96 21.216V30.09C223.96 32.776 222.617 34.119 219.931 34.119H196.624V2.397ZM217.33 29.682V21.318C217.33 20.672 217.228 20.247 217.024 20.043C216.854 19.839 216.429 19.737 215.749 19.737H203.458V31.11H215.647C216.293 31.11 216.735 31.025 216.973 30.855C217.211 30.651 217.33 30.26 217.33 29.682ZM217.33 15.147V6.987C217.33 6.307 217.228 5.882 217.024 5.712C216.854 5.508 216.429 5.406 215.749 5.406H203.458V16.728H215.749C216.429 16.728 216.854 16.643 217.024 16.473C217.228 16.269 217.33 15.827 217.33 15.147ZM250.331 29.529V13.974C250.331 13.328 250.229 12.903 250.025 12.699C249.855 12.495 249.43 12.393 248.75 12.393H239.825C239.179 12.393 238.754 12.495 238.55 12.699C238.346 12.903 238.244 13.328 238.244 13.974V29.529C238.244 30.209 238.346 30.651 238.55 30.855C238.754 31.025 239.179 31.11 239.825 31.11H248.75C249.43 31.11 249.855 31.025 250.025 30.855C250.229 30.651 250.331 30.209 250.331 29.529ZM235.745 9.384H252.83C255.516 9.384 256.859 10.727 256.859 13.413V30.09C256.859 32.776 255.516 34.119 252.83 34.119H235.745C233.059 34.119 231.716 32.776 231.716 30.09V13.413C231.716 10.727 233.059 9.384 235.745 9.384ZM272.349 31.11H280.815C281.461 31.11 281.92 30.991 282.192 30.753C282.464 30.481 282.6 30.039 282.6 29.427V14.076C282.6 13.464 282.464 13.039 282.192 12.801C281.92 12.529 281.461 12.393 280.815 12.393H272.349C271.669 12.393 271.227 12.495 271.023 12.699C270.853 12.903 270.768 13.328 270.768 13.974V29.529C270.768 30.209 270.853 30.651 271.023 30.855C271.227 31.025 271.669 31.11 272.349 31.11ZM282.6 9.384H289.179V34.119H282.6V32.538C282.192 33.592 281.24 34.119 279.744 34.119H268.218C265.532 34.119 264.189 32.776 264.189 30.09V13.413C264.189 10.727 265.532 9.384 268.218 9.384H279.744C281.24 9.384 282.192 9.911 282.6 10.965V9.384ZM308.589 9.333H313.026V12.648H307.416C305.07 12.648 303.897 13.923 303.897 16.473V34.119H297.318V9.384H303.897V12.444C304.543 10.37 306.107 9.333 308.589 9.333ZM325.291 31.11H333.757C334.403 31.11 334.862 30.991 335.134 30.753C335.406 30.481 335.542 30.039 335.542 29.427V14.076C335.542 13.464 335.406 13.039 335.134 12.801C334.862 12.529 334.403 12.393 333.757 12.393H325.291C324.611 12.393 324.169 12.495 323.965 12.699C323.795 12.903 323.71 13.328 323.71 13.974V29.529C323.71 30.209 323.795 30.651 323.965 30.855C324.169 31.025 324.611 31.11 325.291 31.11ZM335.542 0H342.121V34.119H335.542V32.538C335.134 33.592 334.182 34.119 332.686 34.119H321.16C318.474 34.119 317.131 32.776 317.131 30.09V13.413C317.131 10.727 318.474 9.384 321.16 9.384H332.686C334.182 9.384 335.134 9.911 335.542 10.965V0Z" fill="#096dd9"/>
</svg>
